<svg
    width="64"
    height="64"
    viewBox="0 0 64 64"
    fill="none"
    xmlns="http://www.w3.org/2000/svg"
    id="logo-favicon"
>
  <path
    d="M25.4286 8.99999C25.4286 6.79086 27.2194 5 29.4286 5H47.0286V20.1429C47.0286 24.5611 43.4469 28.1429 39.0286 28.1429H25.4286V8.99999Z"
    fill="url(#paint0_linear_209_57)"
  />

  <path
    d="M25.4286 31.2286H43.2C48.7229 31.2286 53.2 35.7057 53.2 41.2286V59H33.4286C29.0103 59 25.4286 55.4183 25.4286 51V31.2286Z"
    fill="url(#paint1_linear_209_57)"
  />

  <path
    d="M10 7C10 5.89543 10.8954 5 12 5H20.3429C21.4474 5 22.3429 5.89543 22.3429 7V26.1429C22.3429 27.2474 21.4474 28.1429 20.3429 28.1429H12C10.8954 28.1429 10 27.2474 10 26.1429V7Z"
    fill="url(#paint2_linear_209_57)"
  />

  <rect
    x="10"
    y="31.2286"
    width="12.3429"
    height="27.7714"
    rx="2"
    fill="url(#paint3_linear_209_57)"
  />

  <defs>
    <linearGradient
      id="paint0_linear_209_57"
      x1="36.2286"
      y1="5"
      x2="36.2286"
      y2="28.1429"
      gradientUnits="userSpaceOnUse"
    >
      <stop class="gradient-top-right-start" />
      <stop
        offset="1"
        class="gradient-top-right-end"
      />
    </linearGradient>

    <linearGradient
      id="paint1_linear_209_57"
      x1="39.3143"
      y1="31.2286"
      x2="39.3143"
      y2="59"
      gradientUnits="userSpaceOnUse"
    >
      <stop class="gradient-bottom-right-start" />
      <stop
        offset="1"
        class="gradient-bottom-right-end"
      />
    </linearGradient>

    <linearGradient
      id="paint2_linear_209_57"
      x1="16.1714"
      y1="5"
      x2="16.1714"
      y2="28.1429"
      gradientUnits="userSpaceOnUse"
    >
      <stop class="gradient-top-left-start" />
      <stop
        offset="1"
        class="gradient-top-left-end"
      />
    </linearGradient>

    <linearGradient
      id="paint3_linear_209_57"
      x1="16.1714"
      y1="31.2286"
      x2="16.1714"
      y2="59"
      gradientUnits="userSpaceOnUse"
    >
      <stop class="gradient-bottom-left-start" />
      <stop
        offset="1"
        class="gradient-bottom-left-end"
      />
    </linearGradient>
  </defs>

  <style>
    #logo-favicon {
      --color-gray-900: #111827;
      --color-gray-700: #374151;
      --color-gray-200: #e5e7eb;
      --color-white: #ffffff;

      --color-primary: var(--color-gray-900);
      --color-secondary: var(--color-gray-700);
    }

    @media (prefers-color-scheme: dark) {
      #logo-favicon {
        --color-primary: var(--color-white);
        --color-secondary: var(--color-gray-200);
      }
    }

    .gradient-top-right-start {
      stop-color: var(--color-secondary);
    }

    .gradient-top-right-end {
      stop-color: var(--color-primary);
    }

    .gradient-bottom-right-start {
      stop-color: var(--color-primary);
    }

    .gradient-bottom-right-end {
      stop-color: var(--color-secondary);
    }

    .gradient-top-left-start {
      stop-color: var(--color-secondary);
    }

    .gradient-top-left-end {
      stop-color: var(--color-primary);
    }

    .gradient-bottom-left-start {
      stop-color: var(--color-primary);
    }

    .gradient-bottom-left-end {
      stop-color: var(--color-secondary);
    }
  </style>
</svg>
